<svg xmlns="http://www.w3.org/2000/svg" xmlns:xlink="http://www.w3.org/1999/xlink" contentStyleType="text/css" height="806px" preserveAspectRatio="none" style="width:1890px;height:806px;background:#FFFFFF;" version="1.1" viewBox="0 0 1890 806" width="1890px" zoomAndPan="magnify"><title>&lt;img:../assets/logo.svg{scale=0.2}&gt;</title><defs><filter height="1" id="b13xj6ewf8wwi90" width="1" x="0" y="0"><feFlood flood-color="#FFFF00" result="flood"/><feComposite in="SourceGraphic" in2="flood" operator="over"/></filter></defs><g><text fill="#000000" font-family="monospace" font-size="14" lengthAdjust="spacing" textLength="126.0205" x="874.9897" y="25.1074">(Cannot&#160;decode)</text><text fill="#000000" font-family="sans-serif" font-size="14" font-weight="bold" lengthAdjust="spacing" textLength="3.8896" x="936.0552" y="44.4189">&#160;</text><text fill="#000000" font-family="sans-serif" font-size="14" font-weight="bold" lengthAdjust="spacing" textLength="306.1748" x="784.9126" y="63.04">Terminal Storage Card API - 0.1.+ (2025-05-06)</text><rect fill="#DDDDDD" height="65.8633" id="_legend" rx="7.5" ry="7.5" style="stroke:#000000;stroke-width:1.0;" width="179.2822" x="848.3589" y="89.5537"/><text fill="#000000" font-family="sans-serif" font-size="14" lengthAdjust="spacing" text-decoration="underline" textLength="86.3857" x="853.3589" y="109.6611">Colors legend</text><text fill="#000000" font-family="sans-serif" font-size="14" lengthAdjust="spacing" textLength="3.8896" x="943.6343" y="109.6611">:</text><ellipse cx="858.8589" cy="124.2959" fill="#000000" rx="2.5" ry="2.5" style="stroke:#000000;stroke-width:0.0;"/><text fill="#000000" font-family="sans-serif" font-size="14" lengthAdjust="spacing" text-decoration="underline" textLength="147.8477" x="865.3589" y="128.2822">External API references</text><text fill="#000000" font-family="sans-serif" font-size="14" lengthAdjust="spacing" textLength="3.8896" x="1017.0962" y="128.2822">:</text><rect fill="#000000" height="3.5" style="stroke:#000000;stroke-width:0.0;" width="3.5" x="862.3589" y="140.417"/><text fill="#000000" filter="url(#b13xj6ewf8wwi90)" font-family="sans-serif" font-size="14" font-weight="bold" lengthAdjust="spacing" textLength="153.2822" x="869.3589" y="146.9033">keypop-reader-java-api</text><!--cluster storage--><g id="cluster_storage"><path d="M8.5,174.4307 L147.9961,174.4307 A3.75,3.75 0 0 1 150.4961,176.9307 L157.4961,199.0518 L1880.5,199.0518 A2.5,2.5 0 0 1 1883,201.5518 L1883,796.9307 A2.5,2.5 0 0 1 1880.5,799.4307 L8.5,799.4307 A2.5,2.5 0 0 1 6,796.9307 L6,176.9307 A2.5,2.5 0 0 1 8.5,174.4307 " fill="none" style="stroke:#000000;stroke-width:1.5;"/><line style="stroke:#000000;stroke-width:1.5;" x1="6" x2="157.4961" y1="199.0518" y2="199.0518"/><text fill="#000000" font-family="sans-serif" font-size="14" font-weight="bold" lengthAdjust="spacing" textLength="138.4961" x="10" y="191.5381">terminal.storagecard</text></g><!--cluster card--><g id="cluster_card"><path d="M113.5,381.9307 L144.0723,381.9307 A3.75,3.75 0 0 1 146.5723,384.4307 L153.5723,406.5518 L1176.5,406.5518 A2.5,2.5 0 0 1 1179,409.0518 L1179,772.9307 A2.5,2.5 0 0 1 1176.5,775.4307 L113.5,775.4307 A2.5,2.5 0 0 1 111,772.9307 L111,384.4307 A2.5,2.5 0 0 1 113.5,381.9307 " fill="none" style="stroke:#000000;stroke-width:1.5;"/><line style="stroke:#000000;stroke-width:1.5;" x1="111" x2="153.5723" y1="406.5518" y2="406.5518"/><text fill="#000000" font-family="sans-serif" font-size="14" font-weight="bold" lengthAdjust="spacing" textLength="29.5723" x="115" y="399.0381">card</text></g><!--cluster transaction--><g id="cluster_transaction"><path d="M1205.5,361.4307 L1281.9619,361.4307 A3.75,3.75 0 0 1 1284.4619,363.9307 L1291.4619,386.0518 L1856.5,386.0518 A2.5,2.5 0 0 1 1859,388.5518 L1859,754.4307 A2.5,2.5 0 0 1 1856.5,756.9307 L1205.5,756.9307 A2.5,2.5 0 0 1 1203,754.4307 L1203,363.9307 A2.5,2.5 0 0 1 1205.5,361.4307 " fill="none" style="stroke:#000000;stroke-width:1.5;"/><line style="stroke:#000000;stroke-width:1.5;" x1="1203" x2="1291.4619" y1="386.0518" y2="386.0518"/><text fill="#000000" font-family="sans-serif" font-size="14" font-weight="bold" lengthAdjust="spacing" textLength="75.4619" x="1207" y="378.5381">transaction</text></g><!--class ApiProperties--><g id="elem_ApiProperties"><rect codeLine="55" fill="#E9F7EF" height="66.6211" id="ApiProperties" rx="2.5" ry="2.5" style="stroke:#27AE60;stroke-width:2.0;" width="239.0889" x="118.5" y="220.4307"/><ellipse cx="133.5" cy="236.4307" fill="#ADD1B2" rx="11" ry="11" style="stroke:#181818;stroke-width:1.0;"/><path d="M136.2656,232.3057 Q136.4219,232.0869 136.6094,231.9775 Q136.7969,231.8682 137.0156,231.8682 Q137.3906,231.8682 137.625,232.1338 Q137.8594,232.3838 137.8594,232.9932 L137.8594,234.4463 Q137.8594,235.0557 137.625,235.3213 Q137.3906,235.5869 137.0156,235.5869 Q136.6719,235.5869 136.4688,235.3838 Q136.2656,235.1963 136.1563,234.6807 Q136.1094,234.3213 135.9219,234.1338 Q135.5938,233.7588 134.9844,233.54 Q134.375,233.3213 133.75,233.3213 Q132.9844,233.3213 132.3438,233.6494 Q131.7188,233.9775 131.2188,234.7275 Q130.7344,235.4775 130.7344,236.5088 L130.7344,237.6025 Q130.7344,238.8369 131.625,239.665 Q132.5156,240.4775 134.1094,240.4775 Q135.0469,240.4775 135.7031,240.2275 Q136.0938,240.0713 136.5156,239.6338 Q136.7813,239.3682 136.9219,239.29 Q137.0781,239.2119 137.2813,239.2119 Q137.6094,239.2119 137.8594,239.4775 Q138.125,239.7275 138.125,240.0713 Q138.125,240.415 137.7813,240.8213 Q137.2813,241.3994 136.4844,241.7275 Q135.4063,242.1807 134.1094,242.1807 Q132.5938,242.1807 131.3906,241.5557 Q130.4063,241.0557 129.7188,239.9932 Q129.0313,238.915 129.0313,237.6338 L129.0313,236.4775 Q129.0313,235.1494 129.6406,234.0088 Q130.2656,232.8525 131.3594,232.2432 Q132.4531,231.6182 133.6875,231.6182 Q134.4219,231.6182 135.0625,231.79 Q135.7188,231.9463 136.2656,232.3057 Z " fill="#000000"/><ellipse cx="152.5" cy="235.9307" fill="#84BE84" rx="3" ry="3" style="stroke:#038048;stroke-width:1.0;"/><text fill="#000000" font-family="sans-serif" font-size="14" font-weight="bold" lengthAdjust="spacing" textLength="28.7793" x="158.5" y="242.2275">final</text><text fill="#000000" font-family="sans-serif" font-size="14" lengthAdjust="spacing" textLength="163.4199" x="191.1689" y="242.2275">StorageCardApiProperties</text><line style="stroke:#27AE60;stroke-width:2.0;" x1="119.5" x2="356.5889" y1="252.4307" y2="252.4307"/><ellipse cx="129.5" cy="267.2412" fill="none" rx="3" ry="3" style="stroke:#038048;stroke-width:1.0;"/><text fill="#000000" font-family="sans-serif" font-size="14" font-weight="bold" lengthAdjust="spacing" text-decoration="underline" textLength="28.7793" x="138.5" y="271.5381">final</text><text fill="#000000" font-family="sans-serif" font-size="14" lengthAdjust="spacing" text-decoration="underline" textLength="103.4756" x="171.1689" y="271.5381">String VERSION</text><line style="stroke:#27AE60;stroke-width:2.0;" x1="119.5" x2="356.5889" y1="279.0518" y2="279.0518"/></g><!--class StorageCardApiFactory--><g id="elem_StorageCardApiFactory"><rect codeLine="58" fill="#EBF5FB" height="85.2422" id="StorageCardApiFactory" rx="2.5" ry="2.5" style="stroke:#3498DB;stroke-width:2.0;" width="732.583" x="440.5" y="211.4307"/><ellipse cx="723.897" cy="227.4307" fill="#B4A7E5" rx="11" ry="11" style="stroke:#181818;stroke-width:1.0;"/><path d="M724.8501,224.0713 L724.8501,230.7275 L726.5688,230.7275 Q727.1782,230.7275 727.4438,230.9619 Q727.7095,231.1963 727.7095,231.5869 Q727.7095,231.9619 727.4438,232.1963 Q727.1782,232.4307 726.5688,232.4307 L721.4282,232.4307 Q720.8188,232.4307 720.5532,232.1963 Q720.2876,231.9619 720.2876,231.5713 Q720.2876,231.1963 720.5532,230.9619 Q720.8188,230.7275 721.4282,230.7275 L723.147,230.7275 L723.147,224.0713 L721.4282,224.0713 Q720.8188,224.0713 720.5532,223.8369 Q720.2876,223.6025 720.2876,223.2119 Q720.2876,222.8369 720.5532,222.6025 Q720.8188,222.3682 721.4282,222.3682 L726.5688,222.3682 Q727.1782,222.3682 727.4438,222.6025 Q727.7095,222.8369 727.7095,223.2119 Q727.7095,223.6025 727.4438,223.8369 Q727.1782,224.0713 726.5688,224.0713 L724.8501,224.0713 Z " fill="#000000"/><ellipse cx="749.397" cy="226.9307" fill="#84BE84" rx="3" ry="3" style="stroke:#038048;stroke-width:1.0;"/><text fill="#000000" font-family="sans-serif" font-size="14" font-style="italic" lengthAdjust="spacing" textLength="146.2891" x="755.397" y="233.2275">StorageCardApiFactory</text><line style="stroke:#3498DB;stroke-width:2.0;" x1="441.5" x2="1172.083" y1="243.4307" y2="243.4307"/><line style="stroke:#3498DB;stroke-width:2.0;" x1="441.5" x2="1172.083" y1="251.4307" y2="251.4307"/><ellipse cx="451.5" cy="266.2412" fill="#84BE84" rx="3" ry="3" style="stroke:#038048;stroke-width:1.0;"/><text fill="#000000" font-family="sans-serif" font-size="14" lengthAdjust="spacing" textLength="610.1143" x="460.5" y="270.5381">StorageCardSelectionExtension createStorageCardSelectionExtension(ProductType productType)</text><ellipse cx="451.5" cy="284.8623" fill="#84BE84" rx="3" ry="3" style="stroke:#038048;stroke-width:1.0;"/><text fill="#000000" font-family="sans-serif" font-size="14" lengthAdjust="spacing" textLength="463.0186" x="460.5" y="289.1592">StorageCardTransactionManager createStorageCardTransactionManager(</text><text fill="#000000" filter="url(#b13xj6ewf8wwi90)" font-family="sans-serif" font-size="14" lengthAdjust="spacing" textLength="120.6201" x="923.5186" y="289.1592">CardReader reader</text><text fill="#000000" font-family="sans-serif" font-size="14" lengthAdjust="spacing" textLength="122.9443" x="1044.1387" y="289.1592">, StorageCard card)</text></g><!--class StorageCardSelectionExtension--><g id="elem_StorageCardSelectionExtension"><rect codeLine="64" fill="#EBF5FB" height="100.4844" id="StorageCardSelectionExtension" rx="2.5" ry="2.5" style="stroke:#3498DB;stroke-width:2.0;" width="613.4873" x="549.5" y="428.4307"/><ellipse cx="747.2666" cy="452.0518" fill="#B4A7E5" rx="11" ry="11" style="stroke:#181818;stroke-width:1.0;"/><path d="M748.2197,448.6924 L748.2197,455.3486 L749.9385,455.3486 Q750.5479,455.3486 750.8135,455.583 Q751.0791,455.8174 751.0791,456.208 Q751.0791,456.583 750.8135,456.8174 Q750.5479,457.0518 749.9385,457.0518 L744.7979,457.0518 Q744.1885,457.0518 743.9229,456.8174 Q743.6572,456.583 743.6572,456.1924 Q743.6572,455.8174 743.9229,455.583 Q744.1885,455.3486 744.7979,455.3486 L746.5166,455.3486 L746.5166,448.6924 L744.7979,448.6924 Q744.1885,448.6924 743.9229,448.458 Q743.6572,448.2236 743.6572,447.833 Q743.6572,447.458 743.9229,447.2236 Q744.1885,446.9893 744.7979,446.9893 L749.9385,446.9893 Q750.5479,446.9893 750.8135,447.2236 Q751.0791,447.458 751.0791,447.833 Q751.0791,448.2236 750.8135,448.458 Q750.5479,448.6924 749.9385,448.6924 L748.2197,448.6924 Z " fill="#000000"/><ellipse cx="772.7666" cy="451.5518" fill="#84BE84" rx="3" ry="3" style="stroke:#038048;stroke-width:1.0;"/><text fill="#000000" font-family="sans-serif" font-size="14" font-style="italic" lengthAdjust="spacing" textLength="16.3516" x="786.9321" y="448.5381">&lt;&lt;</text><text fill="#000000" filter="url(#b13xj6ewf8wwi90)" font-family="sans-serif" font-size="14" font-style="italic" lengthAdjust="spacing" textLength="149.4199" x="803.2837" y="448.5381">CardSelectionExtension</text><text fill="#000000" font-family="sans-serif" font-size="14" font-style="italic" lengthAdjust="spacing" textLength="16.3516" x="952.7036" y="448.5381">&gt;&gt;</text><text fill="#000000" font-family="sans-serif" font-size="14" font-style="italic" lengthAdjust="spacing" textLength="198.4541" x="778.7666" y="467.1592">StorageCardSelectionExtension</text><line style="stroke:#3498DB;stroke-width:2.0;" x1="550.5" x2="1161.9873" y1="475.6729" y2="475.6729"/><line style="stroke:#3498DB;stroke-width:2.0;" x1="550.5" x2="1161.9873" y1="483.6729" y2="483.6729"/><ellipse cx="560.5" cy="498.4834" fill="#84BE84" rx="3" ry="3" style="stroke:#038048;stroke-width:1.0;"/><text fill="#000000" font-family="sans-serif" font-size="14" lengthAdjust="spacing" textLength="428.7773" x="569.5" y="502.7803">StorageCardSelectionExtension prepareReadBlock(int blockNumber)</text><ellipse cx="560.5" cy="517.1045" fill="#84BE84" rx="3" ry="3" style="stroke:#038048;stroke-width:1.0;"/><text fill="#000000" font-family="sans-serif" font-size="14" lengthAdjust="spacing" textLength="587.4873" x="569.5" y="521.4014">StorageCardSelectionExtension prepareReadBlocks(int fromBlockNumber, int toBlockNumber)</text></g><!--class StorageCard--><g id="elem_StorageCard"><rect codeLine="68" fill="#FEFECE" height="119.1055" id="StorageCard" rx="2.5" ry="2.5" style="stroke:#D4AC0D;stroke-width:2.0;" width="387.0127" x="127.5" y="418.9307"/><ellipse cx="261.0635" cy="442.5518" fill="#B4A7E5" rx="11" ry="11" style="stroke:#181818;stroke-width:1.0;"/><path d="M262.0166,439.1924 L262.0166,445.8486 L263.7354,445.8486 Q264.3447,445.8486 264.6104,446.083 Q264.876,446.3174 264.876,446.708 Q264.876,447.083 264.6104,447.3174 Q264.3447,447.5518 263.7354,447.5518 L258.5947,447.5518 Q257.9854,447.5518 257.7197,447.3174 Q257.4541,447.083 257.4541,446.6924 Q257.4541,446.3174 257.7197,446.083 Q257.9854,445.8486 258.5947,445.8486 L260.3135,445.8486 L260.3135,439.1924 L258.5947,439.1924 Q257.9854,439.1924 257.7197,438.958 Q257.4541,438.7236 257.4541,438.333 Q257.4541,437.958 257.7197,437.7236 Q257.9854,437.4893 258.5947,437.4893 L263.7354,437.4893 Q264.3447,437.4893 264.6104,437.7236 Q264.876,437.958 264.876,438.333 Q264.876,438.7236 264.6104,438.958 Q264.3447,439.1924 263.7354,439.1924 L262.0166,439.1924 Z " fill="#000000"/><ellipse cx="286.5635" cy="442.0518" fill="#84BE84" rx="3" ry="3" style="stroke:#038048;stroke-width:1.0;"/><text fill="#000000" font-family="sans-serif" font-size="14" font-style="italic" lengthAdjust="spacing" textLength="16.3516" x="292.5635" y="439.0381">&lt;&lt;</text><text fill="#000000" filter="url(#b13xj6ewf8wwi90)" font-family="sans-serif" font-size="14" font-style="italic" lengthAdjust="spacing" textLength="67.6826" x="308.915" y="439.0381">SmartCard</text><text fill="#000000" font-family="sans-serif" font-size="14" font-style="italic" lengthAdjust="spacing" textLength="16.3516" x="376.5977" y="439.0381">&gt;&gt;</text><text fill="#000000" font-family="sans-serif" font-size="14" font-style="italic" lengthAdjust="spacing" textLength="79.3789" x="303.0669" y="457.6592">StorageCard</text><line style="stroke:#D4AC0D;stroke-width:2.0;" x1="128.5" x2="513.5127" y1="466.1729" y2="466.1729"/><line style="stroke:#D4AC0D;stroke-width:2.0;" x1="128.5" x2="513.5127" y1="474.1729" y2="474.1729"/><ellipse cx="138.5" cy="488.9834" fill="#84BE84" rx="3" ry="3" style="stroke:#038048;stroke-width:1.0;"/><text fill="#000000" font-family="sans-serif" font-size="14" lengthAdjust="spacing" textLength="191.4199" x="147.5" y="493.2803">ProductType getProductType()</text><ellipse cx="138.5" cy="507.6045" fill="#84BE84" rx="3" ry="3" style="stroke:#038048;stroke-width:1.0;"/><text fill="#000000" font-family="sans-serif" font-size="14" lengthAdjust="spacing" textLength="202.3027" x="147.5" y="511.9014">byte[] getBlock(int blockNumber)</text><ellipse cx="138.5" cy="526.2256" fill="#84BE84" rx="3" ry="3" style="stroke:#038048;stroke-width:1.0;"/><text fill="#000000" font-family="sans-serif" font-size="14" lengthAdjust="spacing" textLength="361.0127" x="147.5" y="530.5225">byte[] getBlocks(int fromBlockNumber, int toBlockNumber)</text></g><!--class ProductType--><g id="elem_ProductType"><rect codeLine="73" fill="#E9F7EF" height="122.4844" id="ProductType" rx="2.5" ry="2.5" style="stroke:#27AE60;stroke-width:2.0;" width="196.3721" x="175" y="637.4307"/><ellipse cx="223.75" cy="653.4307" fill="#EB937F" rx="11" ry="11" style="stroke:#181818;stroke-width:1.0;"/><path d="M222.6094,654.2275 L222.6094,656.7275 L226.9375,656.7275 L226.9375,655.8057 Q226.9375,655.1963 227.1719,654.9307 Q227.4219,654.665 227.7969,654.665 Q228.1719,654.665 228.4063,654.9307 Q228.6406,655.1963 228.6406,655.8057 L228.6406,658.4307 L220.6406,658.4307 Q220.0156,658.4307 219.75,658.1963 Q219.5,657.9619 219.5,657.5713 Q219.5,657.1963 219.7656,656.9619 Q220.0313,656.7275 220.6406,656.7275 L220.9063,656.7275 L220.9063,650.0713 L220.6406,650.0713 Q220.0156,650.0713 219.75,649.8369 Q219.5,649.6025 219.5,649.2119 Q219.5,648.8369 219.75,648.6025 Q220.0156,648.3682 220.6406,648.3682 L228.2656,648.3682 L228.2656,650.9619 Q228.2656,651.5713 228.0313,651.8369 Q227.8125,652.0869 227.4219,652.0869 Q227.0469,652.0869 226.8125,651.8369 Q226.5781,651.5713 226.5781,650.9619 L226.5781,650.0713 L222.6094,650.0713 L222.6094,652.5244 L224.0938,652.5244 Q224.0938,651.8682 224.2188,651.6807 Q224.4844,651.2744 224.9531,651.2744 Q225.3281,651.2744 225.5625,651.54 Q225.7969,651.79 225.7969,652.3994 L225.7969,654.3682 Q225.7969,654.915 225.6719,655.1025 Q225.4063,655.4932 224.9531,655.4932 Q224.4844,655.4932 224.2188,655.0869 Q224.0938,654.8994 224.0938,654.2275 L222.6094,654.2275 Z " fill="#000000"/><ellipse cx="249.25" cy="652.9307" fill="#84BE84" rx="3" ry="3" style="stroke:#038048;stroke-width:1.0;"/><text fill="#000000" font-family="sans-serif" font-size="14" lengthAdjust="spacing" textLength="79.3721" x="255.25" y="659.2275">ProductType</text><line style="stroke:#27AE60;stroke-width:2.0;" x1="176" x2="370.3721" y1="669.4307" y2="669.4307"/><text fill="#000000" font-family="sans-serif" font-size="14" lengthAdjust="spacing" textLength="184.3721" x="181" y="688.5381">NXP_MIFARE_ULTRALIGHT</text><text fill="#000000" font-family="sans-serif" font-size="14" lengthAdjust="spacing" textLength="70.7998" x="181" y="707.1592">STM_ST25</text><line style="stroke:#27AE60;stroke-width:2.0;" x1="176" x2="370.3721" y1="714.6729" y2="714.6729"/><ellipse cx="186" cy="729.4834" fill="#84BE84" rx="3" ry="3" style="stroke:#038048;stroke-width:1.0;"/><text fill="#000000" font-family="sans-serif" font-size="14" lengthAdjust="spacing" textLength="122.9443" x="195" y="733.7803">getBlockCount(): int</text><ellipse cx="186" cy="748.1045" fill="#84BE84" rx="3" ry="3" style="stroke:#038048;stroke-width:1.0;"/><text fill="#000000" font-family="sans-serif" font-size="14" lengthAdjust="spacing" textLength="112.8203" x="195" y="752.4014">getBlockSize(): int</text></g><!--class StorageCardTransactionManager--><g id="elem_StorageCardTransactionManager"><rect codeLine="83" fill="#EBF5FB" height="159.7266" id="StorageCardTransactionManager" rx="2.5" ry="2.5" style="stroke:#3498DB;stroke-width:2.0;" width="622.8115" x="1219.5" y="398.4307"/><ellipse cx="1417.2666" cy="414.4307" fill="#B4A7E5" rx="11" ry="11" style="stroke:#181818;stroke-width:1.0;"/><path d="M1418.2197,411.0713 L1418.2197,417.7275 L1419.9385,417.7275 Q1420.5479,417.7275 1420.8135,417.9619 Q1421.0791,418.1963 1421.0791,418.5869 Q1421.0791,418.9619 1420.8135,419.1963 Q1420.5479,419.4307 1419.9385,419.4307 L1414.7979,419.4307 Q1414.1885,419.4307 1413.9229,419.1963 Q1413.6572,418.9619 1413.6572,418.5713 Q1413.6572,418.1963 1413.9229,417.9619 Q1414.1885,417.7275 1414.7979,417.7275 L1416.5166,417.7275 L1416.5166,411.0713 L1414.7979,411.0713 Q1414.1885,411.0713 1413.9229,410.8369 Q1413.6572,410.6025 1413.6572,410.2119 Q1413.6572,409.8369 1413.9229,409.6025 Q1414.1885,409.3682 1414.7979,409.3682 L1419.9385,409.3682 Q1420.5479,409.3682 1420.8135,409.6025 Q1421.0791,409.8369 1421.0791,410.2119 Q1421.0791,410.6025 1420.8135,410.8369 Q1420.5479,411.0713 1419.9385,411.0713 L1418.2197,411.0713 Z " fill="#000000"/><ellipse cx="1442.7666" cy="413.9307" fill="#84BE84" rx="3" ry="3" style="stroke:#038048;stroke-width:1.0;"/><text fill="#000000" font-family="sans-serif" font-size="14" font-style="italic" lengthAdjust="spacing" textLength="207.7783" x="1448.7666" y="420.2275">StorageCardTransactionManager</text><line style="stroke:#3498DB;stroke-width:2.0;" x1="1220.5" x2="1841.3115" y1="430.4307" y2="430.4307"/><line style="stroke:#3498DB;stroke-width:2.0;" x1="1220.5" x2="1841.3115" y1="438.4307" y2="438.4307"/><ellipse cx="1230.5" cy="453.2412" fill="#84BE84" rx="3" ry="3" style="stroke:#038048;stroke-width:1.0;"/><text fill="#000000" font-family="sans-serif" font-size="14" lengthAdjust="spacing" textLength="438.1016" x="1239.5" y="457.5381">StorageCardTransactionManager prepareReadBlock(int blockNumber)</text><ellipse cx="1230.5" cy="471.8623" fill="#84BE84" rx="3" ry="3" style="stroke:#038048;stroke-width:1.0;"/><text fill="#000000" font-family="sans-serif" font-size="14" lengthAdjust="spacing" textLength="596.8115" x="1239.5" y="476.1592">StorageCardTransactionManager prepareReadBlocks(int fromBlockNumber, int toBlockNumber)</text><text fill="#000000" font-family="sans-serif" font-size="14" lengthAdjust="spacing" textLength="3.8896" x="1239.5" y="494.7803">&#160;</text><ellipse cx="1230.5" cy="509.1045" fill="#84BE84" rx="3" ry="3" style="stroke:#038048;stroke-width:1.0;"/><text fill="#000000" font-family="sans-serif" font-size="14" lengthAdjust="spacing" textLength="547.0049" x="1239.5" y="513.4014">StorageCardTransactionManager prepareWriteBlocks(int fromBlockNumber, byte[] data)</text><text fill="#000000" font-family="sans-serif" font-size="14" lengthAdjust="spacing" textLength="3.8896" x="1239.5" y="532.0225">&#160;</text><ellipse cx="1230.5" cy="546.3467" fill="#84BE84" rx="3" ry="3" style="stroke:#038048;stroke-width:1.0;"/><text fill="#000000" font-family="sans-serif" font-size="14" lengthAdjust="spacing" textLength="536.9355" x="1239.5" y="550.6436">StorageCardTransactionManager processCommands(ChannelControl channelControl)</text></g><!--class ChannelControl--><g id="elem_ChannelControl"><rect codeLine="91" fill="#E9F7EF" height="85.2422" id="ChannelControl" rx="2.5" ry="2.5" style="stroke:#27AE60;stroke-width:2.0;" width="140.2822" x="1461" y="655.9307"/><ellipse cx="1476" cy="671.9307" fill="#EB937F" rx="11" ry="11" style="stroke:#181818;stroke-width:1.0;"/><path d="M1474.8594,672.7275 L1474.8594,675.2275 L1479.1875,675.2275 L1479.1875,674.3057 Q1479.1875,673.6963 1479.4219,673.4307 Q1479.6719,673.165 1480.0469,673.165 Q1480.4219,673.165 1480.6563,673.4307 Q1480.8906,673.6963 1480.8906,674.3057 L1480.8906,676.9307 L1472.8906,676.9307 Q1472.2656,676.9307 1472,676.6963 Q1471.75,676.4619 1471.75,676.0713 Q1471.75,675.6963 1472.0156,675.4619 Q1472.2813,675.2275 1472.8906,675.2275 L1473.1563,675.2275 L1473.1563,668.5713 L1472.8906,668.5713 Q1472.2656,668.5713 1472,668.3369 Q1471.75,668.1025 1471.75,667.7119 Q1471.75,667.3369 1472,667.1025 Q1472.2656,666.8682 1472.8906,666.8682 L1480.5156,666.8682 L1480.5156,669.4619 Q1480.5156,670.0713 1480.2813,670.3369 Q1480.0625,670.5869 1479.6719,670.5869 Q1479.2969,670.5869 1479.0625,670.3369 Q1478.8281,670.0713 1478.8281,669.4619 L1478.8281,668.5713 L1474.8594,668.5713 L1474.8594,671.0244 L1476.3438,671.0244 Q1476.3438,670.3682 1476.4688,670.1807 Q1476.7344,669.7744 1477.2031,669.7744 Q1477.5781,669.7744 1477.8125,670.04 Q1478.0469,670.29 1478.0469,670.8994 L1478.0469,672.8682 Q1478.0469,673.415 1477.9219,673.6025 Q1477.6563,673.9932 1477.2031,673.9932 Q1476.7344,673.9932 1476.4688,673.5869 Q1476.3438,673.3994 1476.3438,672.7275 L1474.8594,672.7275 Z " fill="#000000"/><ellipse cx="1495" cy="671.4307" fill="#84BE84" rx="3" ry="3" style="stroke:#038048;stroke-width:1.0;"/><text fill="#000000" font-family="sans-serif" font-size="14" lengthAdjust="spacing" textLength="97.2822" x="1501" y="677.7275">ChannelControl</text><line style="stroke:#27AE60;stroke-width:2.0;" x1="1462" x2="1600.2822" y1="687.9307" y2="687.9307"/><text fill="#000000" font-family="sans-serif" font-size="14" lengthAdjust="spacing" textLength="84.8135" x="1467" y="707.0381">KEEP_OPEN</text><text fill="#000000" font-family="sans-serif" font-size="14" lengthAdjust="spacing" textLength="101.1377" x="1467" y="725.6592">CLOSE_AFTER</text><line style="stroke:#27AE60;stroke-width:2.0;" x1="1462" x2="1600.2822" y1="733.1729" y2="733.1729"/></g><!--link StorageCardApiFactory to StorageCardSelectionExtension--><g id="link_StorageCardApiFactory_StorageCardSelectionExtension"><path codeLine="99" d="M816.16,296.5207 C824.39,333.8807 835.1783,382.9114 843.8883,422.4214 " fill="none" id="StorageCardApiFactory-to-StorageCardSelectionExtension" style="stroke:#3498DB;stroke-width:2.0;stroke-dasharray:7.0,7.0;"/><polygon fill="#3498DB" points="845.18,428.2807,847.1487,418.6306,844.1036,423.3979,839.3363,420.3528,845.18,428.2807" style="stroke:#3498DB;stroke-width:2.0;"/><polygon fill="#000000" points="831.0754,340.9591,832.0001,331.4936,826.2598,332.7579,831.0754,340.9591" style="stroke:#000000;stroke-width:1.0;"/><text fill="#000000" font-family="sans-serif" font-size="13" lengthAdjust="spacing" textLength="36.1309" x="839" y="341.459">create</text></g><!--link StorageCardApiFactory to StorageCardTransactionManager--><g id="link_StorageCardApiFactory_StorageCardTransactionManager"><path codeLine="100" d="M975.4,296.4807 C1039.46,313.0807 1112.92,333.0807 1179,353.4307 C1223.27,367.0707 1264.6116,380.7935 1309.3616,396.3235 " fill="none" id="StorageCardApiFactory-to-StorageCardTransactionManager" style="stroke:#3498DB;stroke-width:2.0;stroke-dasharray:7.0,7.0;"/><polygon fill="#3498DB" points="1315.03,398.2907,1307.8389,391.561,1310.3064,396.6514,1305.216,399.1189,1315.03,398.2907" style="stroke:#3498DB;stroke-width:2.0;"/><polygon fill="#000000" points="1158.7905,337.5084,1150.9662,332.1017,1149.2826,337.7333,1158.7905,337.5084" style="stroke:#000000;stroke-width:1.0;"/><text fill="#000000" font-family="sans-serif" font-size="13" lengthAdjust="spacing" textLength="36.1309" x="1163" y="341.459">create</text></g><!--link StorageCard to ProductType--><g id="link_StorageCard_ProductType"><path codeLine="101" d="M308.07,538.1407 C301.33,568.7807 294.3703,600.3611 287.5703,631.2411 " fill="none" id="StorageCard-to-ProductType" style="stroke:#27AE60;stroke-width:2.0;stroke-dasharray:7.0,7.0;"/><polygon fill="#27AE60" points="286.28,637.1007,292.1219,629.1715,287.3553,632.2177,284.3091,627.451,286.28,637.1007" style="stroke:#27AE60;stroke-width:2.0;"/><polygon fill="#000000" points="300.9248,602.9592,305.74,594.7577,299.9997,593.4937,300.9248,602.9592" style="stroke:#000000;stroke-width:1.0;"/><text fill="#000000" font-family="sans-serif" font-size="13" lengthAdjust="spacing" textLength="42.6372" x="311" y="603.459">provide</text></g><!--link StorageCardTransactionManager to ChannelControl--><g id="link_StorageCardTransactionManager_ChannelControl"><path codeLine="102" d="M1531,558.4407 C1531,591.3407 1531,622.1907 1531,649.6807 " fill="none" id="StorageCardTransactionManager-to-ChannelControl" style="stroke:#27AE60;stroke-width:2.0;stroke-dasharray:7.0,7.0;"/><polygon fill="#27AE60" points="1531,655.6807,1535,646.6807,1531,650.6807,1527,646.6807,1531,655.6807" style="stroke:#27AE60;stroke-width:2.0;"/><polygon fill="#000000" points="1536,603.0762,1538.9389,594.0311,1533.0611,594.0311,1536,603.0762" style="stroke:#000000;stroke-width:1.0;"/><text fill="#000000" font-family="sans-serif" font-size="13" lengthAdjust="spacing" textLength="20.96" x="1545" y="603.459">use</text></g><!--link StorageCardApiFactory to StorageCard--><g id="link_StorageCardApiFactory_StorageCard"><path codeLine="103" d="M675.23,296.5007 C629.16,312.5007 577.59,332.1007 532,353.4307 C491.49,372.3807 453.7615,393.6014 417.3215,415.6814 " fill="none" id="StorageCardApiFactory-to-StorageCard" style="stroke:#27AE60;stroke-width:2.0;stroke-dasharray:7.0,7.0;"/><polygon fill="#27AE60" points="412.19,418.7907,421.9601,417.5477,416.4662,416.1996,417.8144,410.7057,412.19,418.7907" style="stroke:#27AE60;stroke-width:2.0;"/><polygon fill="#000000" points="590.4612,338.1736,599.9048,337.0472,597.4392,331.7115,590.4612,338.1736" style="stroke:#000000;stroke-width:1.0;"/><text fill="#000000" font-family="sans-serif" font-size="13" lengthAdjust="spacing" textLength="20.96" x="604" y="341.459">use</text></g><!--link StorageCardApiFactory to ProductType--><g id="link_StorageCardApiFactory_ProductType"><path codeLine="104" d="M440.34,293.8507 C264.25,314.3407 88.24,338.2907 75,353.4307 C15.02,422.0207 32.98,477.5907 75,558.4307 C96.45,599.7007 131.2251,628.2441 169.6551,650.7941 " fill="none" id="StorageCardApiFactory-to-ProductType" style="stroke:#27AE60;stroke-width:2.0;stroke-dasharray:7.0,7.0;"/><polygon fill="#27AE60" points="174.83,653.8307,169.092,645.8259,170.5176,651.3002,165.0433,652.7258,174.83,653.8307" style="stroke:#27AE60;stroke-width:2.0;"/><polygon fill="#000000" points="76.9788,482.5602,84.786,477.1289,80.1025,473.5772,76.9788,482.5602" style="stroke:#000000;stroke-width:1.0;"/><text fill="#000000" font-family="sans-serif" font-size="13" lengthAdjust="spacing" textLength="20.96" x="89" y="483.959">use</text></g><!--SRC=[fLThR-8u5FsUN-5jFommmsCeb1PHf90udMeeHP3kRhMxGcvY8DiaZcpJMRRYlw_jf924330p20dxvlYS-x1l3FUuZpKWFZqlM7HhjJfY37DMzyc2rDZhueqvoCStZLfpqzSKqCOqy4BaWoad52qmC11rWJw-0rNGg7sgVG2bPgFPhZR4zxAiuT05NAbeluAR6s1_XlTG3CJK82iVhoW37cChp82BGHSiEOzOjrvVyi1tY4-eGrpCQWu9wdDQv-ZPnsXLTN7LYLSNcCIGUOkm6lc8rxLVN3ptGk7cx7O2dpu1wygwjgvpvYQmcjQ5rSgPBm1immxCerl0x9W3qyoPsy3G3SjivioNO60Q5qOdPHxUZRw0YzRrbJb8MH-d43GxEhniQ1fxyS88KHG0mnSb6H3gOcelFUSbn8o1PWgWKqg-fX-9H3zXtoTVzrYGyxAWP1MwXimiEBUW1GrOB9P0p9PkD4n1ES7k4RvUZsAttnUq9ZIXSO1sYuITbaYDjlH4xT-DZ6EA2Lz7MAYELpGIU-UOSAHWIhi53QjpK7i7leAjbcw-os_j6G-U_TLnVGbIyGoijZKugFuEJSgVQ2VMZF8jnJWyAhsGAALzRNMWTL1xYqssMIB-RiwhhqyHNojjNUmZU4nRGPl61ModfTTPvRXD60yZ6uvirIXyl51TX4Ig0SrcYf61s3wRWQwoLyGJ-AyWair9zYEAvu8rT33ROIgWzoo2wAxL0UbNAYzu7P6eIZ4IhbR_GQ-eYYAlKkdL9Qwl-bSif6cHiCYETyQJ7bXZSGzqH0iy0uY1P0xUbDe7HsO1d5KgSuaMuadFb2rJZxmn9H6ctCDCBSvOKcM9oHJX6-E8Uyu6f2cf5ox0Rt0olNiOAUWcLlT2uUSSESBXhAw5735VAz729xiDcT9E8QVOnmxtI2Zp7J8n08x88CS7CIKHdRjok2tA3ABTk5oeOLCKCgGOxb4eZ7HVOnzJofHNOYQgiY0kS5BLZ-cmWQnUEKcS-jdMULjNEKZd8fNQNczFSZ_qHBVV_oiycA9yIGeINL2Q4yeJKImE9fR96FZ4UIc924Hh4wFHAdZ6jFmpP4onpIa91Zl6Zq0QEHaKYMnEIUKqG9HB5ugpbyzLFY7ftRR0F3KjvQ9zNdFyvzyIT4fkSkYV2Xw7gm2SfLnJGQKzBse3yZFwOpoxlxFq2Pmz3ks9Fhox_Mnd45FxVZQrcsqjw_wxt-Bs5V9IkIizBKPClVzm7h0fF2TyTmvL0AdvDqxDmKEShsn1ApZX51Ii-l5JS0BPwHlX1rH-fnx7XsIINUaYZhvNW8Wt93D84A3GPILZYS8G-mO9EIK-S3BJ0viukqwLC4VrhQty1SBnx64CHnchCNoOmfbksN2oj_isyfQWCqOS3ybOc5Ry6glL-aUwwNbo6UycBnVGFusg8967gHH1-c2VnnV-hYp0gxmCPU05_98Wbz4jnueTy9nwYoNFkl-TAmlzZbV6rxMX_lJm6D_Mr7ngFmtZVtd_0m00]--></g></svg>